<svg width="100" height="100" viewBox="0 0 100 100" xmlns="http://www.w3.org/2000/svg"><path d="M50 0c27.613 0 50 22.387 50 50 0 27.614-22.387 50-50 50S0 77.614 0 50C0 22.387 22.387 0 50 0zM28.486 54.414c-1.281 0-2.322.721-3.022 1.641-.774.287-1.587.55-2.395.819l-.483.162-.48.164c-2.946 1.023-5.569 2.264-5.569 5.14-.02 2.043 1.52 3.603 3.843 3.603V63.62c-.64 0-1.461-.398-1.461-1.38 0-1.49 1.876-2.242 3.884-2.938l.895-.308.444-.155-2.5 6.203c-1.742 4.204-.442 5.946 1.5 5.946 1.74 0 3.302-1.42 4.504-2.904-.18 1.781.94 2.402 2.082 2.402.957 0 1.846-.464 2.675-1.19l-1.979 4.895h2.823l4.304-10.67c.66-.94 1.541-1.68 2.262-1.68.42 0 .62.28.62.839 0 1.863-2.062 6.125-3.262 6.125-.34 0-.64-.421-.64-.421l-.942.862s.68 1.24 3.102 1.24c2.417 0 4.351-1.246 5.816-2.953.16 1.849 1.4 2.953 3.75 2.953 1.906 0 3.46-.734 4.714-1.77l-.612 1.511h2.823l2.78-6.927c.902-.98 1.782-1.42 2.323-1.42.32 0 .5.14.5.48 0 .381-.28 1.1-.34 1.282-.701 1.76-1.781 1.801-2.402 1.801-.46 0-.76.18-.84 1.221-.18 2.042.922 3.822 2.822 3.822 1.463 0 2.992-1.061 4.24-2.354-.055 1.664.88 2.354 2.124 2.354 1.44 0 2.772-1.013 3.962-2.477.008 1.369.748 2.477 2.161 2.477 1.722 0 3.042-1.64 3.042-1.64s.16 1.64 2.164 1.64c2.32 0 4.202-2.321 5.744-5.023-.121-.34-.64-.72-1.022-.74-1.4 2.42-2.842 4.003-3.723 4.003-.4 0-.72-.36.16-2.542l2.543-6.346h-2.823l-.56 1.36s-.38-1.621-2.243-1.621c-2.485 0-4.091 2.853-4.876 5.367-1.36 2.292-2.757 3.782-3.61 3.782-.378 0-.74-.3.163-2.542l4.162-10.308h-2.821l-3.688 9.08c-1.334 2.247-3.215 3.732-4.299 3.77-.9.059-1.1-.923-1.02-2.182 1.32-.121 2.442-.983 3.163-2.402.12-.242.92-1.86.92-2.943 0-.96-.68-1.622-1.84-1.622-1.643 0-3.084 1.321-3.084 1.321l2.022-5.022h-2.822l-3.643 9.005c-1.441 2.421-3.547 3.845-5.502 3.845-2.543 0-1.782-2.382-1.782-2.382 3.322.399 4.984-.542 5.863-2.483 1.262-2.721-.36-4.284-2.521-4.284-3.02 0-4.966 2.76-5.732 5.29-1.354 2.267-2.77 3.532-4.433 4.179.82-.822 2.84-4.183 2.84-6.787 0-1.459-.64-2.682-2.14-2.682-1.422 0-2.403 1.083-2.423 1.122l.34-.861H36.23l-2.047 5.061c-1.35 2.249-2.44 3.546-3.374 3.546-.42 0-.86-.24-.08-2.28l4.183-10.471H32.09l-3.443 8.608c-.96 1.84-3.222 4.202-4.544 4.202-.2 0-1.02-.059.08-2.783l3.143-7.803c.641-1.562 1.682-1.941 1.682-1.941zm47.318 7.193c.98 0 .98 1.214.98 1.214l-1.516 3.484s-1.045 1.552-2.264 1.552c-.428 0-.684-.217-.684-.756 0-1.373 1.666-5.494 3.484-5.494zm-25.357 0c.579 0 .529.492.214 1.216-.346.9-.91 1.676-2.448 1.41 0 0 .944-2.626 2.234-2.626zM38.71 43.675h-.165l2.441 8.19h.05c2.235 1.528 5.367 2.48 8.836 2.48 3.47 0 6.601-.952 8.836-2.48h.057l2.443-8.19h-.164c-2.816 1.954-6.778 3.17-11.168 3.17s-8.352-1.216-11.166-3.17zM49.735 30.34c-.705 1.122-1.78 1.953-2.778 2.876-1.579 1.459-3.165 2.93-4.28 4.822-2.846 4.822.673 7.667 5.91 7.673.142 0 1.196.095 1.3 0-2.23-.837-3.172-2.626-3.501-4.12-.498-2.264.178-4.432 1.138-6.471.769-1.633 1.769-3.077 2.21-4.78zm.741-.138c-.12 1.318-.459 2.348-.932 3.622-.093.252-.19.504-.286.757l-.29.76c-.577 1.523-1.096 3.074-1.053 4.721.037 1.382.711 3.108 1.638 4.195 1.25 1.466 2.77 1.407 3.86 1.18 2.86-.592 3.406-4.32 2.091-7.498-1.173-2.838-4.195-5.239-5.028-7.737zm.775-.064c.918 1.5 2.182 2.78 3.392 4.12 1.511 1.67 2.79 3.546 2.973 5.858.121 1.525-.244 3.374-1.193 4.38.125.061 2.567-.441 3.472-1.175 1.166-.944 1.947-2.394 1.956-3.9.01-1.427-.789-2.763-1.72-3.786-1.112-1.216-2.562-1.975-4.033-2.672l-.736-.346c-.245-.115-.489-.23-.73-.347-1.223-.592-2.38-1.265-3.381-2.132zm-2.42.268c-1.154.649-2.423 1.074-3.741 1.407-2.084.525-4.287.898-6.064 2.187-1.12.811-2.172 1.959-2.45 3.36-.296 1.478.177 3.054 1.13 4.216 1.167 1.424 3.174 2.1 3.583 1.997-2.897-4.267 1.363-8.238 3.389-9.816 1.422-1.11 2.95-2.066 4.153-3.351zm14.143-4.242a7.63 7.63 0 0 1-2.026 8.817 6.6 6.6 0 0 1 .691.642c.74.81 1.372 1.857 1.433 2.98a7.007 7.007 0 0 0 1.976-1.613 7.093 7.093 0 0 0-2.074-10.826zm-26.337-.354a5.993 5.993 0 0 0-2.248 9.04c.342.452.737.834 1.167 1.16.386-.911 1.154-1.654 1.959-2.197.184-.124.373-.235.567-.338a6.478 6.478 0 0 1-.82-.892 6.451 6.451 0 0 1-.625-6.773z" fill="#F2A3B1" fill-rule="evenodd"/></svg>