<svg width="229" height="55" viewBox="0 0 229 55" xmlns="http://www.w3.org/2000/svg" xmlns:xlink="http://www.w3.org/1999/xlink"><defs><path id="a" d="M-.004.582h157.089V47H-.005z"/><path id="c" d="M0 .055h8.607v17.903H0z"/></defs><g fill="none" fill-rule="evenodd"><g transform="translate(71 7.945)"><mask id="b" fill="#fff"><use xlink:href="#a"/></mask><path d="M139.232 29.287s-2.3 3.664-4.979 3.664c-.939 0-1.503-.516-1.503-1.785 0-3.242 3.663-12.967 7.658-12.967 2.16 0 2.16 2.865 2.16 2.865l-3.336 8.223zM79.528 18.012c1.644 0 1.502 1.314.61 3.242-.987 2.394-2.583 4.463-6.953 3.758 0 0 2.678-7 6.343-7zm75.161 6.765c-3.288 5.684-6.67 9.397-8.738 9.397-.94 0-1.692-.846.377-5.967l5.967-14.895h-6.626l-1.316 3.196s-.892-3.805-5.262-3.805c-5.847 0-9.629 6.728-11.465 12.638-3.186 5.36-6.455 8.833-8.453 8.833-.893 0-1.738-.705.377-5.967l9.771-24.195H122.7l-8.675 21.373c-3.132 5.247-7.536 8.698-10.069 8.79-2.114.14-2.584-2.163-2.395-5.122 3.1-.284 5.731-2.303 7.422-5.639.281-.564 2.162-4.369 2.162-6.906 0-2.256-1.598-3.805-4.323-3.805-3.853 0-7.235 3.1-7.235 3.1l4.746-11.79h-6.625L89.132 25.21c-3.379 5.652-8.313 8.964-12.893 8.964-5.966 0-4.18-5.592-4.18-5.592 7.798.94 11.697-1.268 13.765-5.826 2.96-6.389-.846-10.053-5.92-10.053-7.098 0-11.674 6.497-13.469 12.442-3.174 5.307-6.493 8.265-10.395 9.781 1.926-1.928 6.671-9.82 6.671-15.928 0-3.43-1.503-6.295-5.027-6.295-3.335 0-5.638 2.537-5.684 2.631l.798-2.022h-6.577l-4.81 11.895c-3.169 5.273-5.722 8.31-7.917 8.31-.987 0-2.02-.566-.188-5.357l9.82-24.572h-6.625l-8.08 20.203c-2.256 4.322-7.565 9.865-10.666 9.865-.469 0-2.396-.14.188-6.53L25.32 8.802c1.503-3.664 3.947-4.557 3.947-4.557L28.044.582c-3.006 0-5.45 1.691-7.094 3.851C11.694 7.863-.004 9.883-.004 19.185c-.047 4.793 3.571 8.457 9.021 8.457v-5.449c-1.504 0-3.43-.939-3.43-3.242 0-4.275 6.578-5.967 12.262-7.986L11.976 25.53C7.89 35.394 10.942 39.482 15.5 39.482c4.087 0 7.752-3.336 10.571-6.812-.423 4.181 2.208 5.637 4.886 5.637 2.234 0 4.32-1.04 6.255-2.722L32.596 47h6.625l10.1-25.043c1.551-2.207 3.618-3.945 5.31-3.945.986 0 1.456.658 1.456 1.972 0 4.37-4.839 14.377-7.658 14.377-.799 0-1.504-.986-1.504-.986l-2.208 2.02s1.598 2.912 7.283 2.912c5.653 0 10.19-2.895 13.622-6.883.388 4.323 3.33 6.883 8.832 6.883 4.46 0 8.11-1.7 11.048-4.123l-1.42 3.513h6.625l6.53-16.256c2.114-2.302 4.18-3.336 5.45-3.336.752 0 1.174.328 1.174 1.127 0 .893-.658 2.584-.799 3.008-1.645 4.135-4.182 4.23-5.637 4.23-1.082 0-1.785.421-1.974 2.864-.422 4.793 2.162 8.973 6.625 8.973 3.415 0 6.991-2.457 9.915-5.472-.123 3.893 2.104 5.472 5.022 5.472 3.378 0 6.51-2.359 9.302-5.793.028 3.204 1.763 5.793 5.071 5.793 4.041 0 7.143-3.852 7.143-3.852s.375 3.852 5.074 3.852c5.45 0 9.865-5.45 13.483-11.79-.282-.8-1.502-1.693-2.397-1.74z" fill="#F29FAB" mask="url(#b)"/></g><path d="M20.18 14.948c2.498-1.947 5.18-3.626 7.29-5.881-2.026 1.138-4.252 1.886-6.566 2.469-3.657.923-7.523 1.575-10.642 3.838-1.966 1.426-3.81 3.44-4.3 5.896-.519 2.594.312 5.362 1.982 7.4 2.048 2.5 5.571 3.686 6.29 3.506-5.085-7.491 2.392-14.457 5.946-17.228m22.707 11.161c-.321-4.057-2.565-7.351-5.216-10.283-2.124-2.348-4.341-4.597-5.954-7.23 1.755 1.524 3.786 2.705 5.934 3.742C41.046 13.98 44.7 15.4 47.3 18.247c1.637 1.792 3.038 4.136 3.021 6.64-.015 2.646-1.387 5.19-3.433 6.848-1.59 1.287-5.873 2.167-6.096 2.06 1.666-1.766 2.308-5.01 2.095-7.686" fill="#F29FAB"/><path d="M23.18 28.697c-.873-3.975.312-7.78 1.996-11.355 1.349-2.867 3.104-5.403 3.88-8.39-1.236 1.967-3.122 3.427-4.876 5.047-2.77 2.558-5.553 5.139-7.51 8.46-4.994 8.466 1.18 13.457 10.373 13.467.25 0 2.098.167 2.279 0-3.91-1.466-5.566-4.608-6.142-7.23" fill="#F29FAB"/><path d="M30.357 8.71c-.21 2.313-.806 4.118-1.634 6.356-1.31 3.536-2.958 7.093-2.86 10.948.064 2.425 1.248 5.455 2.874 7.36 2.195 2.573 4.86 2.471 6.776 2.073 5.02-1.039 5.976-7.582 3.67-13.162-2.06-4.978-7.366-9.193-8.826-13.575" fill="#F29FAB"/><path d="M49.194 32.355h-.289c-4.939 3.427-11.893 5.562-19.599 5.562-7.703 0-14.657-2.135-19.597-5.562H9.42l4.286 14.37h.086c3.923 2.686 9.419 4.356 15.507 4.356 6.088 0 11.584-1.67 15.506-4.355h.103l4.286-14.371z" fill="#F29FAB"/><g transform="translate(0 .945)"><mask id="d" fill="#fff"><use xlink:href="#c"/></mask><path d="M7.61 14.103c.324-.22.657-.414.997-.596a11.336 11.336 0 0 1-1.442-1.566A11.32 11.32 0 0 1 6.071.055c-.66.307-1.29.683-1.889 1.135-4.638 3.5-5.556 10.096-2.059 14.729a10.437 10.437 0 0 0 2.05 2.039c.678-1.6 2.023-2.905 3.436-3.855" fill="#F29FAB" mask="url(#d)"/></g><path d="M54.447 3.085a12.186 12.186 0 0 0-2.158-1.463c1.955 4.522 1.335 9.952-2.059 13.971a13.333 13.333 0 0 1-1.494 1.502c.423.347.834.716 1.211 1.128 1.298 1.42 2.406 3.258 2.514 5.231a12.353 12.353 0 0 0 3.467-2.833c4.432-5.25 3.773-13.102-1.48-17.536" fill="#F29FAB"/></g></svg>