<svg width="77" height="162" viewBox="0 0 77 162" xmlns="http://www.w3.org/2000/svg"><path d="M3.32 2.094l-.695-.488c.043.12.038.262-.038.439C2.344 1.423 1.175.99.474.468l.752-.3-.062.23c.1.267.369.435.65.585l.211.111c.11.058.215.116.308.18l.434-.621 1.049.734-.496.707zm.286 3.069c-.812-.686-.452-1.25.361-.557-.609-.19-.426.192-.361.557zm.199.79c-.036.471-.113.7-.621.406.235.028-.062-.363.013-.593zm3.473.364c.148.85-.61.516-1.083.46.712.087.627-.399 1.083-.46zm-1.074 1.79c-.158.197-.251.576-.42.68.197-.214.02-.585-.024-.83zm2.01-.247l.011-.053c.06-.291.06-.896-.092-1.263l-.117-.016c-.185-.596.307-.432.541-.398-.127.132-.378.006-.325.309.16.259.38.167.5.183-.137.578-.31.905-.59 1.352l.071-.114zm-.445.587c-.241-.099-.5-.18-.752-.266.234.029.313-.198.412-.304.117.188.237.371.34.57zm-.4 1.469c-.12-.348.055-.622.114-.737.051.067.102.133.148.19zm1.575 2.793c-.428-.061-.902-.125-1.22-.401.348.056.16-.575.608-.622.068.56.27.865.612 1.023zm1.774-2.488l-.885-.632c.217-.088.403-.418.702.116l.203-.207-.02.723zm-.594 1.974c-.252-.243-.465-.464-.828-.525-.269-.292.07-.37.235-.443.235.28.437.613.593.968zm1.268 1.38l-1.04-.766-.009.044a3.985 3.985 0 0 0-.219-.658c.152.145.316.296.547.424-.34-.896 1.04.059.128-.817.484.202.66-.249 1.193.327-.213.683-.805.342-1.365.539.427.41.653.656.765.908zm.88 1.186c-.151.082-.359.13-.833-.049.057-.554.076-.848-.048-1.136l.218.164-.117-.023zm1.52-3.03c.166.391-.19.325-.46.035l.208-.202c.118.02.132.144.252.167zm-1.155 3.573l-1.01.036.541-.257.469.221zm3.357-1.174c-.624.726-1.727-.254-2.01.425-.044-.497.41-.662-.336-1.168-.705-.135-.226 1.034-.321 1.397-.624-.328-.785-.198-.972-.074.383-1.002 1.419-2.378 2.125-2.13-.008.834.789 1.15 1.227.871.024.251-.326.175-.43.276zm44.448 145.634c-.093.636-.18 1.368-.262 1.178-.213.162-.199-1.016-.32-1.594-.234.654.314 2.619-.183 1.974.035-.198.109-.421.062-.553-.08-.023-.238-.73-.368-1.414-.166-1.017-.288-1.92-.341-1.621l.11.638c-.11.257-.283-.522-.394-1.082-.115-.565-.185-.928-.222.011l.008.917-.044-.179c-.154-.603-.207-.602-.252-.559l-.025.025c-.046.04-.103.02-.266-.62l.017-.132c-.206-.046-.169-1.142-.428.04l.044.245c-.255-.161-.266-.282-.498-.605-.043.074-.16.103-.182-.066-.011-.006-.024-.01-.034-.018-.24.795-.696-.296-.775-.453.247.092.27-.402.342-.818-.351.61-.48.572-.433-.093-.115.261-.23.524-.349.767l.024.031-.066.052c-.334.668-.677 1.147-.992.868.135-.082.27-.064.327-.314.059-.248-.136-.117-.204-.078.064-.241.261-.269.387-.658-.724.663-.457-.393-.999-.466.29-.14.304-.422.472-.762-.72.935.166-1.309-.627.045-.188-1.531-1.36-1.57-.844-2.437.262-.339-.362-.009-.456-.079l.386-.335c-.895.394-.422.05-1.362.408.551-.298.712-.536.957-.978l-.952.53.543-.573c-.298.131-.288-.04-.276-.212v.003l-.097.068c-.581.382-.808.145-1.144.328l-.074.046c.703-.812-.41-.044.267-.787a1.727 1.727 0 0 1-.37.151c-.304.358-.673.73-.576.497-.014 0-.017-.006-.03-.007l.425-.454c-.178.02-.305-.011-.363-.056-.017.06-.076.167-.153.29.037-.097.092-.205.138-.304a.056.056 0 0 1-.021-.032c.019-.007.031-.01.039-.004.061-.146.068-.245-.148-.17.196-.409-.081-.4-.391-.367l-.156.017c-.334.031-.62.012-.294-.56-.055.136-.038.24.14.106-.277-.212.14-1.066-.355-.901l-.413.403c-.363-.006-.632-.023-.742-.197l-.486.436c-.025-.379-1.226-.127-.363-1.177-.23.161-.26.036-.277-.117l-.011-.116c-.013-.094-.037-.174-.117-.175l.337-.372c-.027-.273-.25-.25-.446-.247.283-.63.01-.73-.294-.786l-.13-.022c-.151-.027-.291-.061-.355-.163l.104-.1-.53-.045c.402-.233-.281.156-.27-.016-.264.073-.307-.164-.17-.493l-.15-.201c.437-.027.515-.506.927-.912l-.448.197c.16-.236.402-.232.413-.403-.3.132-.5-.113-1.006.22-.096.11-.17.233-.222.345.036-.015.03-.01-.004.01l-.015.03.005-.023a2.11 2.11 0 0 0-.2.123c-.039-.233-.164-.018-.35.165.508-.782-.024-.459.633-1.307l-.093.125-.083.097c-.455.496-.275-.408-.818.173l-.097.111c.26-.35.266-.397.25-.41l-.012-.01c-.01-.013.009-.053.214-.304-.014.215.284.14.611.022l.198-.074c.131-.05.259-.1.364-.132l.274-.51c.84-.615.004.572.336.415-.228.108-.168-.178-.003-.34l-.543.575c-.05.411.546.148.964.02.068-.31.495-.163.816-.638l-.167-.038c.158-.238.429-.3.653-.4-.117.72.808.981.462 1.522.085-.203-.157-.208-.38-.11l-.098.378c-.135-.108.286-.684-.077-.691-.337.371-.963.703-1.34 1.315-.247.889 1.224-.596 1.48-.04.149-.065-.683.468-.275.511.633-.057 1.66-.621 2.455-1.362l-.173.047-.125.03c-.313.068-.599.07-.19-.36.343-.099.677-.022 1.06-.359-.552.746-.408-.042-.813.638.093.07.344-.097.494-.163-.328.2-.395.508-.527.678.247.279.1.708.313 1.055a3.444 3.444 0 0 1-.437.479c.316-.026 1.504-.75 1.87-1.19.183.142-.124.444.192.417.387-.784-.059.137.607-.437.214.075-.263.34-.349.546.092-.04.36-.181.535-.338-.404.543-1.433 1.008-1.903 1.642-.29.405-.642 1.316-.67 1.384.607-.435 2.827-2.537 3.455-3.313.386-.339-.273.51-.255.612-.217.374-.032.335.194.25l.125-.05c.188-.074.361-.134.322.02l-.449.197c-.13.17.279.212.53.045-.206.203-1.196.894-1.383 1.199.143.382 1.555-.44 2.172-1.045l-1.052.186c.515-.506.81-.191 1.427-.799l.176.567c-.064-.034-.354-.045-.59.285.184.143-.012.173-.154.514-.847.429-2.895 1.675-3.828 2.308l.54-.126-.265.339c.663-.126 2.953-1.811 3.561-2.247.007.275-1.172 1.273-1.425 1.44.22.35 1.868-1.19 1.986-.74l.142-.341c.17-.027.182.441.363.22-.245.339-.902 1.052-1.155 1.163l1.308-.72c-.15.065-1.031.932-1.207 1.065.063.14 1.214-.79 1.298-.995-.46.816-.152.433-.762 1.316.12.003.956-.899 1.013-1.035.37-.086.331.101.295.258-.601.131-2.089 1.825-2.819 2.421l3.158-2.013c-.177.133-1.076.897-1.178.996.841-.704 1.47-.234 1.615.148l-.046-.035c-.328.199-.328.65.039.48-.172.138-.147.067-.192.033-.189.345.066.171.347-.047.66-3.211-.593-6.456.162-9.627-.083-.257-.363-.092-.548.017.753-.75-.443-.656-.574-1.035l1.07-1.102c-.358-.402-.684-.051-.912-.068-.318-1.942.63-3.933-.148-5.468.367-.54.914.046 1.005-.635-1.01.935-.745-1.515-1.33-1.332l-.067.03.036-.026c.951-.76.063-2.225 1.503-2.22l.17.006c.03-.813-.788-.59-.92-.344-.015-.934-.075-1.685-.7-2.382.334-.552-.863-4.168.293-5.153-.76.669-.437.011-.869-.48l-.673.58-.075-1.222c-.102-.236-.08-.31-.014-.317.01-.21.429-.008.549-.557-.06-.832-.468-.817-.906-1.216l-.093.141-.14-.548c-.031-.416.916 1.353 1.12-.046-.204.007-1.273-.643-.804-1.077.063.688.561.53.74.246l-.09-.971-.883.456c-.348-2.753-.121-5.726-.708-8.644.816-.108-.314-2.083.919-2.043l-.095.135c.237.702.912-.388.657-.95-.259.685-1.404-.868-1.29.652l-.786-1.038c-2.398-.185-.405-3.09-1.478-4.676a.437.437 0 0 0 .312.109c-1.053-1.374-.147-3.575-.584-3.851l.59-.28c-1.25-1.092-1.344-1.228-1.333-2.877.106-.005.328.132.396-.146l-.206-.1c-.476-.242-.912-.562-1.034-1.519l.208-.006-.517-1.636c1.9-.487-1.856-2.541.036-3.585-.643-.173-1.153-1.333-1.564-1.792a.4.4 0 0 0 .218-.2c-1.194-.342-.19-1.92-.503-2.591-.369-.386-.634-.092-.901.202.564-1.15-1.644-2.201-1.398-2.631-.125-.678.644-.468 1.004-.778-.48-.92-1.645.697-1.303-.844.128.126.28.385.357.24.005-.544 1.876-2.134 1.288-2.497l-.233.44c-.76-.757.844-2.674-.475-2.396l-.555.281c.108-.835.021-1.028-.091-1.165l-.064-.074c-.117-.137-.229-.327-.168-1.16l.102-.012c-.35-.652.247-1.284-.802-1.29l-.046.28c-.367-.83-.324-.93-.577-1.817-.125-.072-.407-.441-.254-.634-.765.236-1.109-1.867-1.204-2.27.372.638.576.191.815-.121-.78-.164-.948-.414-.708-1.146-.987.29-2.048.573-2.516-.492a.943.943 0 0 1 .068.04l.13.092c.127.088.242.15.346.027.154-.188-.158-.356-.261-.414.154-.186.44.105.724-.149-1.192-.377-.548-1.25-1.281-2.188h.001l.09.041c.311.115.408-.154.617-.38l.06-.06c-1.11.36.324-1.83-.892-.856-.05-2.414-2.127-5.282-1.62-6.467.283-.388-.6-.675-.783-1.021l.485-.164c-1.3-.609-.672-.632-2.057-1.403.773.224.932-.095 1.14-.788l-1.33-.347.64-.497c-.433-.197-.49-.618-.55-1.04l.002.009-.075.004c-.818-.02-1.318-1.089-1.818-1.19l-.089-.007c.774-.828-.721-.816.04-1.524a1.807 1.807 0 0 1-.551-.257c-.33.381-.763.678-.72.26l-.054-.066.481-.42a3.22 3.22 0 0 1-.645-.76c.002.122-.043.288-.107.47.01-.181.048-.361.074-.532a.692.692 0 0 1-.054-.118c.027.011.048.03.062.056.03-.264-.013-.5-.34-.684.257-1.576-2.408-1.89-1.97-3.713-.014.247.08.532.312.495-.623-.984-.424-2.432-1.199-2.842l-.474.333c-.648-.614-1.13-1.094-1.434-1.71l-.583.298c-.095-.374-.434-.78-.781-1.206l-.208-.258c-.512-.65-.937-1.336-.479-2.016-.302.036-.451-.317-.59-.715l-.094-.268c-.096-.267-.2-.52-.359-.658l.347-.388c-.252-.717-.643-1.009-1-1.305.105-1.861-1.568-2.43-2.243-3.551l.112-.091-1.047-.894c.569.029-.405-.038-.526-.438-.438-.209-.72-.848-.737-1.447l-.457-.713c.807.58.548-.475.987-.86l-.682-.177c.098-.344.564.024.436-.38-.47-.11-1.106-.98-1.788-.89-.084.128-.116.313-.11.509.056.014.048.018-.001.018l-.002.048c-.005-.02-.008-.028-.011-.05a1.076 1.076 0 0 0-.274.02c-.303-.612-.345-.273-.54-.1.263-1.148-.482-1.122.008-2.229l-.054.137-.045.088c-.436.741-.97-1.378-1.507-.632l-.062.1c.378-1.013-.2-.337.195-1.108.287.794 1.433.918 2.142 1.2l.05-.842c1.075-.293.562 1.381 1.07 1.473-.347-.06-.505-.666-.332-.82l-.527.611c.298.917 1.229 1.125 1.94 1.414-.162-.645.832.315 1.013-.37l-.372-.332c.089-.344.568-.109.921-.027.443 1.589 2.43 3.651 2.238 4.456-.013-.374-.485-.753-.829-.849l.14.783c-.353-.467-.041-1.252-.746-1.816-.326.407-1.237.29-1.433 1.228.284 1.8 1.83.367 2.8 2.117.233.065-.91.117-.09.836 1.18.804 2.655 1.012 3.556.422-.553-.32-1.734-.89-1.175-1.474.59.288 1.299.996 1.74.766-.446.997-.8-.759-1.02.31.229.326.568.307.796.38-.455-.018-.342.65-.459.866.673 1.099.728 1.941 1.387 3.151-.074.133-.242.413-.451.498.564.435 2.233.541 2.586.033.452.657.105.914.677 1.36.127-1.337.002.245.799-.097.433.552-.245.428-.262.81.137.051.524.144.736.04-.365.705-1.898.166-2.32.994-.25.549-.289 2.265-.296 2.387.8-.09 3.402-1.69 4.01-2.622.47-.21-.148.849-.048 1.14-.284 1.176 1.224.855 1.302 1.657l-.678-.261c-.125.208.641 1.017.986 1.022-.238.162-1.571.234-1.709.69.523 1.202 2.488 1.554 3.207 1.078a40.15 40.15 0 0 0-1.748-1.353c.595-.41 1.343.902 2.05.426l.628 1.787c-.128-.198-.637-.745-.859-.306.399.696.079.43.025 1.062-1.23-.393-4.035-.766-5.317-.722l.88.59-.265.411c1.056.814 4.062.492 4.871.446.166.725-1.316 1.21-1.658 1.199.569 1.279 2.566.236 3.022 1.606l.055-.628c.282.236.562 1.465.756 1.221-.205.377-.795.921-1.193.953l-.083-.002.535.138c.204.055.407.112.61.168l.61.17c-.216-.101-1.273.55-1.505.577.17.476 1.646.155 1.692-.223v.003l-.061.207c-.272.966-.057.747-.5 1.628l-.098.192c.2.227 1.172-.588 1.202-.84.578.457.602.878.612 1.22-.94-.766-2.627.913-3.564 1.126l4.318.563c-.234.02-1.38.343-1.505.415 1.087-.29 2.339 2.105 2.681 3.392l-.084-.179c-.447-.093-.289 1.069.243 1.342-.232.015-.213-.11-.3-.288-.192.522.212.648.65.75l.219.051c.433.105.805.25.554.807-.22-.792-.687-.766-1.069-.558.621.458.822 2.044 1.886 1.254-.084.496.217.79-.4 1.003.454.403.889.816 1.317 1.232-.166-.063-.556-.02-.468.46-.157-.927-1.613-1.29-1.024-2.053-.745.283-1.006.761-1.797.616 1.048 1.462 2.603 1.878 3.874 2.58l.02 1.668.364-.07-.76.582c.266.107.48.158.413.226-.063.063-.195.06-.349.037.101.137.23.247.346.285-.428.227-1.042.168-1.613.074.108-.194.218-.39.322-.58-.536-.118-1.056-.151-1.19.352.08.034.17.08.261.131-.39-.057-.695-.066-.77.115l.83.941c.068-.17.241-.448.437-.774.823.476 1.81 1.016 2.151.176l-.184 1.037c1.234.677.982.572 2.044 1.57-.276.176-.643-.058-.787.24 1.277.552-.38 2.584.539 2.476.46.649.85.04 1.249.419-.104.012-.31.035-.278.173l.809.334c-.148.297-.604-.356-.66.352.828.895 1.366 1.41 1.335 2.403.54 1.22 1.073-.953 1.28.163-.46.325-1.022.66-.892 1.354.461.24.846.065 1.258.596l-.795.21c.206.546.49.944-.103 1.133.476.351.513.682.46.958.678.717 1.404-1.11 1.649-1.408-.332 1.018.19 1.49-.611 2.25l-.44-.67c-.483 1.857 1.556 1.16.098 2.385-.09-.559-.69-1.08-1.035-.633l.622.66c-.183.153-.27-.403-.41.026.235.17.767.507 1.086.633l.256-.016c.015.093-.094.079-.257.016h.001l-.052.004.48 1.254-.018-.025c-.092-.099-.244-.06-.25.104l.005.06.672.809c-.278-.228-.44.132-.455.583.091 1.255 2.049.463 1.5 1.613-.02-.14-.126-.135-.147-.276l-.222.573c.794-.164 1.04.425 1.246 1.07l.095.298c.207.645.454 1.238 1.25 1.083-.51.864-.395.151-1.413-.524l-.303.856c-.138-.28-.07-.56-.314-.833-.474 1.138.647 1.803 1.217 2.214-.153.426-1.34.031-.804 1 .696 1.388 1.167-.584 1.586.252l-.718.854c.933.971.513 1.967.615 2.947.118.201.233.286.34.317-.157 1.103 1.333 1.945 1.215 2.78-.22-.14-.456.56-.657.7l.82 1.277c-.352-.568-.856-.433-1.37-.442.137.423.455.57.579.852-.214-.144-.433-.288-.616-.011l1.127 1.287c.07-.104.07-.278.064-.424.076.364.553 1.09.24 1.695-.205-.008-.424-.15-.631-.155.474-.55-.051-.704-.476-.854.284.987-.081.277-.347.831.157.703.89.862 1.282.593-.043.841-.11 1.117.541 1.843l-.72-.024.35.713-.95-.453c-.225 1.532 1.232.044 1.118 1.725l-.609.115c.34.573 1.406.605.757 1.216.175.198.314.088.439-.06l.073-.09c.18-.227.336-.413.54.362-.272.304-.41.88-.464 1.308.314.357.591-.28.56-.624l-.004-.026.03.115c.417 1.79-1.726 1.549-.929 3.065l.101.176c.341-.725 1.265.359 1.014-1.191.474.685-.668 1.598.115 2.266l-.857-.38c.026.28.357.547.474.683l-.611.03c1.2.792-.239 1.844 1.231 2.206-1.142-.236.16.703-.22 1.144-.858-.677-.292-2.253-1.315-2.206-.25.409.292.66.048 1.055-.186-.223-.506-.54-.722-.604-.385 1.279.862 1.794 1.225 2.49l-.398-1.257c1.018-.04.245.556 1.08.807-.457.723.392 1.12.126 1.694-.012-.14-.113-.137-.124-.278.206 1.408-1.387 2.01-1.345 2.57-.057.562.596 1.535.985 1.106.336.416-.514-1.832.886-1.191-1.415.99.748 1.593-.094 3.471-.62-.706-.801.548-1.282-.091.213.82.442.825.91 1.151l-.445.302c1.176.978.972.154 1.69 1.757-.421-.519-.627.734-.999.344.01.461.192.896.507 1.204l-.073-.054c.389 1.658-.463 1.426.178 2.91l.275-.177c.919 1.946.606 4.526 1.06 6.59l.177-.684v.072c.037.361.425 1.192.205 1.778l-.069.141c-.034-.13-.175-.347-.144-.47-.321.037-.778.315-.836.819l.496.168-.372.222c.022.763.693-.26.715.504-.639.237-.7.958-.7 1.735l.001.392c.005.784-.018 1.553-.587 1.877 1.027.486.111-1.448 1.046-.912-.147.239-.335.35-.404.85l.603-.193c-.113.937-.264 1.64-.395 2.28.048-.036.117-.054.252-.018.155.126.277.277.433.404l-.086-.034c-.36-.13-.153.095.079.328l.099.1c.1-.293.15.016.532.112.105-.181-.405-.648-.792-.855.297-.078.45-.06.164-.558l.547.442-.053-.308.595.64c.636-.068-.938-.758-.343-.914l.505.355c-.089-.284-.902-.936-.217-.623-.203-.36-.886-.259-.75-.669.303.125.583.132.754.106-.128-.224-.498-.311-.605-.265l-.02.015.011-.038c.225-.478 1.786.828 1.613.138l-.029-.093c-.472-.1-.882-.82-1.128-.44-.174-.387.975.17.557-.402l.002.003.556.572c.05-.049-.076-.232-.146-.341l-.029-.047.484.365c-.71-.843.713-.13-.332-1.07l.014.011.085.074c.637.537.046-.212.334-.15l.048.016c.499.632-.396.523.414 1.133.125.036.144 0 .141-.052l-.01-.08c-.004-.052.013-.089.135-.054.08.147.24.387.39.527.672.045-.18-.803-.273-1.13l-.025.443c-.81-.61-.044-.238-.63-.784.552.16-.007-.415.355-.347-.028.03.051.09.022.12.216-.35 1.631.51 1.748.394.201-.054-.074-.62-.488-.779-.154-.27-.067.62-1.005-.33h.003l.134.065c1.088.502-.18-.686.708-.618l.113.013c.31.494.772.387.99.786.04-.27-.14-.408-.427-.745l.43.214c-.686-.873-.727-.604-.911-1.325.209.346.671.24.873.533.104-.09.062-.28-.114-.523l.046.054c.081-.54.719.02.543-.648l-.26-.13c-.293-.92.538-1.231.596-1.927l-.285.035.014-.02c.042-.1-.086-.483.204-.477l.09.011c.002.047.069.174.016.181.265.181.695.395.844.324l-.363-.326.34.17c.122-.16-.481-.32-.492-.48l.017-.048c1.217.704.699-.666 1.816-.109-.74-.707-.36.256-1.016-.41h.002l.097.025c.1.027.2.059.294.049l.092-.025-.524-.31c.667-.345 1.237-.254 1.475-.812l.093.095c.314-.036.29-.194-.084-.574.258.13.287.337.54.414-1.054-1.201 1.36.052.604-.76h.001l.25.174c.85.552 1.825.84 2.452 1.382l.178.171-.031-.208c.632.508-.26.4.38.963l-.97-.097c.258.163.582.488.711.486-.056.107-.08.216.366.341-1.21-.13-1.545.371-1.797.926l-.092.21c-.2.455-.41.898-1.06 1.02.014.104.273.232.445.317l-.004-.002-.09-.03c-.55-.18.23.38.327.563l.009.025-1.095-.402c.2.295.538.415.716.552-.15.6-1.37.428-1.098 1.193-.416-.11-.72-.552-.946-.472 1.102.453.114.782.881 1.116l-.026-.013-.106-.049c-.906-.399-.58.37-1.682-.452l-.16-.122c-.219.133.484.58.648.614-.211.185-.346.36-.035.853-.413-.109-.372 1.265-1.567.718l.008.002.125.058c.556.26.271.229.388.483l.031.059.687.309-.272.247c.014.1-.023.1-.077.061-.065.028-.34-.258-.582-.24-.179.173.146.417.38.748l.11.033-.038.176c-.09.087-.351-.777-.89-.672.162.123.822.878.327.659.15-.145-.285-.421-.506-.485l-.208.202.82.463c-.516.638-1.552.948-2.008 1.696-.663-.484-.393.48-1.329-.28l.113.039c.027-.244-.813-.5-.802-.278.42.073.795.964 1.198.706l.267.609c1.014.851.645.937.2 1.014l-.135.023c-.291.053-.56.135-.445.452a.975.975 0 0 0-.203-.206c.324.822-1.079.445-.896.827l-.54-.336c.47 1.022.436 1.214-.225 1.466-.065-.085-.149-.282-.3-.3.238.476.445.994.078 1.289l-.113-.186-.37.703c-.557-.904-.542-.407-.592.144-.044.545-.164 1.161-.696.076.186.728-.05 1.372-.092 1.901a.922.922 0 0 0-.13-.269c.203 1.537-.596.273-.71.64-.045.498.09.886.241 1.252-.242-.38-.341.162-.437.804zM15.07 15.842c.343.293.721.5.338.858-.473-.226-.947-.45-.29-.795-.012-.026-.031-.043-.048-.063zm1.633-.076l-.563.119.415-.521.148.402zm1.591 2.682c-.143.127-.329-.331-.575-.693.106.06.211.093.291.02zm-1.244 2.668c.929.727-1.18.266-.516.07-.102.22.5-.314.516-.07zm6.098.844l-.672.434c.108-.218.218-.311.21-.562l.462.128zm-.015 2.847c.235.188.243.439.014.496l-.591-.535c.11-.218.343-.029.577.04zm1.563-1.408c.604.793-.34.148-.568.208-.256-.695.34-.152.568-.208zm-3.151 4.887c-.123-.242-.196-.562-.239-.996.463-.157.265.423.239.996zm.59.945c-.527-.11-.61-.524-.59-.945.152.311.364.512.591.7-.002.084.01.157-.002.245zm7.333 4.897l-1.223.52 1.117-.687.106.167zm1.71 10.801l-.434.376c-.487.31-.057-.47.162-1.088-.015.237.04.48.271.712zm5.986-3.142c-.648.623-.62.275-1.166-.076.34.077-.064-.736.31-.684.017.414.159.417.324.378l.127-.031c.17-.037.34-.023.405.413zm3.1 7.515l-2.174.237 1.31-1.002c.012.375.043.644.864.765zm3.63 13.421c.118-.346.124-.616-.123-.691-.057.296.002.519.122.691zm7.166 15.608c.302-.257-.21-.555-.398-.724-.086.413-.355.695.398.724zm5.027 11.615c-.777.261-.23-.144-.258-.623l-.003-.025.06.144c.055.112.116.224.157.336zm-15.41 48.922l-.077.097c.066-.307-.519-.216-.779-.325l.607-.433-.13.168c-.097.377.9-.117.302.59zm2.444.768c-.291.406-.526.677-.863 1.049l.085-.094.047-.067c.119-.176.277-.459.337-.641l.02-.082-.072.032c.084-.306.358-.38.502-.44-.13.126-.256.137-.326.307.018.104.195-.032.27-.064zm-1.81 3.59c-.278.127-.585.27-.72.222.224-.098.293-.406.619-.606-.13.312-.087.42.1.385zm2.014-2.176l-.41-.042c.178-.135.413-.404.449-.198l.205-.202-.244.442zm.273.66c-.362.492-.662.514-1.11.848.165.084.242.146.24.256l-.475-.065-.019.03a1.33 1.33 0 0 0 .055-.313.4.4 0 0 0 .243.046c.05-.41.7-.364.348-.542.27-.064.534-.404.718-.26zm-.635 1.483a1.39 1.39 0 0 1-.56.291c.214-.357.32-.544.325-.67l.099.015-.074.031zm2.812-1.888c-.648.676-1.147.562-1.542 1.07.114-.272.47-.541.107-.548-.448.198-.48.712-.64.95-.348.066-.5.206-.666.353.578-.757 1.725-1.988 2.13-2.112-.272.51.22.348.604.012-.055.135-.28.235-.384.336zm-1.072 1.381c.138.017.244.036-.075.35l-.093.022c-.228.05-.38.05.115-.365 0-.01-.01-.011-.017-.016zm10.186 3.787c-.582.641-.503.453-.852.557.239-.134.07-.333.34-.497-.124.444.562-.47.512-.06zm1.23 2.02l-1.657 1.263 1.113-1.17c-.042.172-.053.284.544-.093zm.458 5.341l.304-.563c.028-.131.054-.26.08-.39-.019 0-.037 0-.057-.002-.202.364-.396.726-.426 1.077l.1-.122zm5.006-5.19l-.45-.844a.207.207 0 0 0-.144-.003c-.039.2-.075.402-.106.602l.403.323c.03-.134-.167-.348-.172-.457.12.15.24.3.47.379zm-5.243 8.527l-.737-.36.837-.102c-.192.095-.131.339-.1.462zm19.021-17.828l-.738-.518.524-.746-.321-.204c.148.074.156.003.15-.05l-.002-.023.221.207.167-.239.738.517-.739 1.056z" fill="#F2A3B1" fill-rule="evenodd"/></svg>