<svg width="159" height="71" viewBox="0 0 159 71" xmlns="http://www.w3.org/2000/svg"><path d="M3.621 69.095l-.831-.176c.117-.05.218-.15.295-.327-.62.246-1.733-.314-2.594-.47l.294.754.125-.202c.263-.108.57-.026.872.077l.225.078c.117.041.231.079.34.103l-.157.741 1.252.266.18-.844zM6.06 67.21c-1.055-.125-1.222.522-.16.645-.555-.316-.151-.443.16-.645zm.713-.392c.321-.348.435-.56-.126-.732.18.153-.307.202-.424.415zm2.635 2.291c.723-.472-.038-.798-.402-1.105.55.46.137.73.402 1.105zm.577-2.006c.036-.25.25-.577.211-.772-.022.29-.415.414-.623.549zm1.19 1.638l-.03.045c-.174.241-.615.654-.987.793l-.092-.074c-.562.271-.106.52.078.667.01-.182-.253-.28.004-.448.3-.06.381.164.475.24.33-.493.451-.843.587-1.353l-.035.13zm.126-.725c-.237-.11-.472-.244-.708-.369.181.152.07.364.06.51.217-.044.433-.081.648-.14zm.802-1.294c-.336.15-.418.464-.462.585.084-.008.167-.016.24-.021zm3.116-.754c-.336-.271-.706-.574-1.125-.618.279.216-.312.508-.04.869.456-.333.816-.393 1.165-.25zm-.61 2.994l-1.064-.215c.083.217-.032.579.563.434l-.013.29.515-.509zm1.04-1.78c-.35-.019-.657-.024-.95-.248-.396.003-.222.303-.163.474a4.039 4.039 0 0 0 1.112-.226zm1.874-.015l-1.27-.237.026-.036c-.198.113-.41.21-.63.289.209.011.432.028.683.11-.887.362.752.72-.51.65.477.217.268.653 1.052.65.355-.621-.299-.822-.536-1.365.59.032.925.029 1.185-.06zm1.467-.164c-.043-.167-.149-.352-.604-.576-.366.42-.569.634-.863.74l.268.048-.096-.071zm-1.18 3.178c.4-.145.109-.361-.287-.36l-.006.29c.095.072.195-.002.293.07zm1.826-3.282l-.662-.762.18.57.482.192zm1.431 3.256c.105-.95-1.363-1.09-1.06-1.76-.394.307-.204.752-1.083.551-.58-.423.601-.87.802-1.187-.665-.233-.68-.44-.716-.661-.472.964-.772 2.66-.11 3.007.605-.574 1.38-.208 1.475.303.2-.153-.095-.357-.092-.503zM157.89 3.34c.402-.502.878-1.064.684-.995-.027-.267-.88.548-1.385.853.32-.617 2.13-1.556 1.319-1.48-.12.16-.234.367-.362.423-.07-.043-.696.323-1.285.695-.857.572-1.6 1.098-1.418.856l.541-.355c.113-.255-.575.149-1.06.45-.492.301-.805.498-.143-.17l.676-.619-.16.09c-.547.298-.582.26-.581.197V3.25c-.001-.061-.054-.09-.634.228l-.085.102c-.175-.12-.95.655-.262-.34l.209-.135c-.293-.077-.388-.002-.782.048.024-.082-.035-.188-.173-.088-.012-.004-.024-.01-.036-.013.418-.717-.691-.306-.86-.258.235.119-.11.472-.366.809.208-.674.091-.742-.363-.254.113-.261.227-.526.324-.778l.038-.003-.006-.085c.26-.7.377-1.276-.042-1.317.032.155.137.241-.006.453-.142.213-.18-.02-.197-.095-.133.211-.018.374-.217.732-.009-.982-.6-.067-1.022-.414.095.308-.102.51-.236.866.193-1.164-.844 1.014-.395-.49-1.247.907-2.075.075-2.357 1.045-.07.423-.254-.26-.369-.28l.017.511c-.322-.923-.25-.343-.629-1.274.158.606.093.886-.063 1.367l-.262-1.058-.048.788c-.108-.308-.225-.184-.344-.058l.003-.001-.016-.118c-.118-.686-.446-.69-.541-1.06l-.017-.085c-.114 1.067-.312-.27-.394.731a1.727 1.727 0 0 0-.141-.374c.054-.466.074-.989-.03-.76-.01-.01-.016-.008-.025-.016l-.043.62c-.107-.144-.216-.216-.288-.227.032-.054.07-.17.108-.31-.046.093-.087.208-.128.308a.056.056 0 0 0-.038.007c.007.018.014.029.023.03-.065.145-.132.218-.225.008-.165.423-.347.213-.535-.036l-.094-.125c-.205-.265-.413-.461-.61.168.062-.134.149-.192.173.029-.344-.057-.684.83-.902.355l.014-.577c-.251-.261-.448-.447-.65-.408l-.012-.653c-.295.24-.93-.81-1.109.537-.039-.278-.152-.215-.275-.122l-.092.07c-.077.056-.152.092-.207.034l-.043.5c-.218.167-.353-.012-.484-.157-.27.637-.527.505-.776.32l-.105-.08c-.123-.091-.243-.17-.361-.147l-.003.144-.394-.358c.104.453-.078-.311-.196-.186-.126-.243-.33-.113-.476.212l-.25.027c.279.339-.019.722-.034 1.3l-.161-.462c-.064.278.104.452-.014.577-.107-.309-.424-.289-.525-.886.015-.146.055-.282.102-.397.013.037.012.029.003-.01l.012-.032-.013.02a2.11 2.11 0 0 1-.046-.23c-.198.13-.126-.108-.119-.369-.225.905-.352.295-.523 1.355l.027-.154.014-.127c.053-.67-.485.077-.43-.716l.014-.147c-.078.43-.109.466-.13.464l-.014-.003c-.017.001-.033.043-.077.364.148-.156.296.112.433.432l.081.195c.053.13.104.257.151.356l-.186.548c.123 1.034.421-.386.533-.037-.076-.24-.245 0-.25.23l.05-.789c.266-.317.48.298.672.69-.18.262.218.474.09 1.033l-.143-.096c-.065.278.073.518.153.75.448-.577 1.27-.078 1.429-.7-.091.2-.26.027-.34-.203l.21-.33c-.171-.025-.305.676-.558.416.042-.5-.142-1.184.048-1.877.481-.787.399 1.301.98 1.109.054.153-.123-.818.186-.55.39.502.678 1.638.678 2.725-.024-.048-.053-.102-.083-.158l-.064-.112c-.164-.276-.357-.486-.394.106.163.318.447.51.463 1.02.167-.912-.31-.27-.089-1.03.115.02.164.318.218.473-.077-.377.102-.635.137-.848.372-.01.585-.409.984-.49.022-.132.064-.424.053-.646.195.248.476 1.61.404 2.179.229.036.24-.394.436-.145-.31.818.06-.136.095.742.2.106.07-.424.16-.627.035.094.114.386.119.622.121-.666-.24-1.736-.097-2.511.098-.49.525-1.368.555-1.435.096.74.073 3.798-.067 4.787.016.512.187-.548.274-.605.126-.413.223-.251.314-.028l.05.126c.074.188.148.355.234.222l-.162-.463c.035-.211.345.059.394.356.008-.289-.162-1.484-.066-1.829.377-.155.738 1.438.717 2.301l-.582-.895c-.018.721.413.722.39 1.588l.534-.258c-.068-.024-.275-.228-.194-.626.23.037.118-.126.27-.463-.263-.912-.748-3.26-.922-4.374l.276.48.068-.424c.36.57.689 3.395.785 4.137.206-.183.131-1.725.08-2.024.407-.079.405 2.177.815 1.957l-.153.337c.097.143.447-.169.409.114.08-.41.154-1.377.063-1.637l.364 1.447c-.053-.153-.02-1.39-.043-1.61.145-.047.25 1.428.157 1.63.283-.894.213-.407.443-1.456.084.086-.006 1.312-.067 1.447.19.33.3.173.39.04-.313-.53-.09-2.772-.15-3.713l.68 3.683c-.023-.221-.078-1.4-.075-1.541.06 1.095.832 1.234 1.21 1.08l-.057-.01c-.079-.376.251-.682.377-.299-.016-.219-.05-.153-.106-.163.124-.373.17-.068.202.286-1.899 2.672-5.126 3.97-6.93 6.684-.245.116-.315-.202-.362-.412-.034 1.062-.78.123-1.148.286l-.076 1.534c-.538.013-.504-.465-.671-.62-1.638 1.091-2.448 3.142-4.101 3.62-.145.638.657.638.221 1.168-.005-1.375-1.616.49-1.881-.063l-.023-.07.005.044c.093 1.214-1.584 1.564-.6 2.614l.121.12c-.574.575-.968-.175-.879-.44-.693.627-1.283 1.095-2.219 1.114-.176.62-3.637 2.211-3.569 3.728-.03-1.012-.29-.327-.943-.308l-.035-.887-.945.777c-.242.087-.281.154-.242.207-.147.15.287.32-.032.78-.65.525-.917.216-1.508.168l.04-.164-.497.27c-.325.262 1.615-.251.73.851-.134-.153-1.337-.492-1.336.147.547-.424.771.05.685.374l-.772.595-.267-.956c-2.252 1.624-4.271 3.817-6.805 5.378.478.67-1.738 1.19-.868 2.065l.034-.162c.675-.305.339.932-.248 1.13.326-.657-1.59-.437-.402-1.389l-1.295.133c-1.77-1.628-2.536 1.81-4.428 2.108.152.011.243.1.293.154-1.723.166-2.714 2.33-3.215 2.199l.199.623c-1.652-.17-1.816-.146-3.014.987.068.08.32.15.163.39l-.214-.083c-.501-.184-1.033-.284-1.815.28l.137.155-1.55.739c.94 1.72-3.124.375-2.597 2.47-.565-.352-1.761.066-2.377.078a.4.4 0 0 1 .002.296c-1.064-.64-1.533 1.17-2.238 1.4-.533-.007-.5-.401-.466-.797-.457 1.197-2.732.299-2.878.772-.581.37.096.79.116 1.264-1 .276-.613-1.678-1.506-.376.18.007.473-.058.42.097-.396.374-.282 2.827-.949 2.644l.163-.47c-1.071-.039-1.38 2.441-2.077 1.287l-.172-.598c-.538.65-.737.717-.915.728l-.097.004c-.18.008-.396.056-.963.667l.06.084c-.715.19-.77 1.056-1.49.293l.174-.225c-.857.298-.9.398-1.723.818-.137-.042-.6.003-.637.247-.35-.721-2.121.462-2.481.667.72-.163.533.291.468.679-.653-.459-.95-.411-1.321.263-.462-.919-.978-1.888-2.076-1.504.024.008.05.015.076.022l.156.033c.15.032.275.074.256.234-.033.241-.369.128-.482.092-.031.24.376.25.386.63-1.09-.614-1.288.453-2.475.556h.001l.09.038c.297.15.167.404.145.71l-.004.085c-.493-1.056-1.118 1.487-1.235-.067-1.8 1.609-5.312 2.046-5.834 3.225-.091.471-.903.02-1.281.124l.211.466c-1.332-.536-.92-.06-2.428-.548.69.413.566.747.2 1.372l-1.16-.735.072.805c-.439-.181-.785.064-1.134.308l.007-.004-.048-.058c-.574-.585-1.695-.222-2.11-.519l-.066-.06c-.078 1.13-1.09.03-1.088 1.069a1.807 1.807 0 0 0-.564-.228c.054-.5-.024-1.02-.3-.704l-.085.006.021.638a3.22 3.22 0 0 0-.996.047c.09-.082.182-.228.27-.399-.124.132-.23.281-.338.417a.692.692 0 0 0-.123.04.125.125 0 0 0 .084.008c-.174.202-.376.332-.733.217-.977 1.264-3.025-.472-4.06 1.092.172-.179.444-.304.576-.109-1.145.216-2.068 1.348-2.896 1.062l-.08-.574c-.891-.056-1.571-.082-2.23.117l-.178-.63c-.338.186-.867.215-1.415.251l-.33.024c-.825.069-1.617.227-1.801 1.025-.18-.245-.54-.114-.926.055l-.26.115c-.26.112-.518.208-.726.187l-.047.518c-.697.305-1.177.217-1.637.159-1.29 1.346-2.847.51-4.127.781l.01.144-1.368-.156c.41.396-.303-.27-.679-.087-.451-.177-1.11.053-1.56.448l-.834.153c.974.195.027.724.044 1.308l-.594-.378c-.185.307.402.396.02.578-.401-.27-1.472-.14-1.87-.7.035-.15.149-.3.296-.429.05.032.046.023.013-.013l.033-.033c-.018.01-.025.013-.043.025a1.076 1.076 0 0 1-.173-.214c-.654.196-.435-.066-.441-.326-.66.975-1.149.413-1.625 1.526l.063-.134.034-.092c.245-.824-1.669.231-1.49-.671l.031-.113c-.483.967-.383.083-.678.898.777-.332 1.65.421 2.34.748l-.583.61c.519.986 1.394-.53 1.808-.221-.282-.213-.832.085-.828.316l.089-.803c.874-.407 1.66.132 2.356.455-.58.322.799.394.421.993l-.497-.045c-.19.3.309.49.61.692 1.463-.76 4.326-.714 4.784-1.403-.282.246-.881.16-1.186-.026l.668-.433c-.582.06-.944.824-1.837.694.076-.516-.632-1.103-.08-1.886 1.512-1.02 1.517 1.089 3.459.605.206.125-.535-.746.55-.637 1.392.314 2.55 1.252 2.733 2.313-.61-.186-1.834-.661-1.878.146.612.234 1.613.27 1.747.75.424-1.006-1.1-.067-.47-.956.394-.056.612.205.822.322-.325-.32.242-.694.32-.927 1.262-.257 1.916-.791 3.25-1.134.047-.145.137-.459.056-.67.703.116 1.92 1.265 1.788 1.869.789-.117.74-.546 1.457-.432-.892 1.004.18-.166.474.65.698-.06.146-.47.413-.743.131.065.463.284.531.51.268-.747-1.172-1.501-.855-2.374.231-.557 1.46-1.757 1.544-1.845.48.646 1.084 3.641.818 4.721.166.486.519-.687.8-.813.667-1.01 1.46.313 2.1-.177l-.653-.318c.067-.233 1.18-.224 1.42.024-.044-.285-.901-1.308-.66-1.72 1.235-.438 2.832.76 2.974 1.61a40.15 40.15 0 0 1-2.181-.356c.106.714 1.576.367 1.71 1.21l1.735-.76c-.233.04-.98.041-.81-.42.781-.183.368-.236.794-.706-1.127-.632-3.312-2.428-4.155-3.396l1.033.24.119-.474c1.315.218 3.13 2.636 3.648 3.259.644-.373-.012-1.788-.254-2.03 1.323-.456 1.923 1.715 3.236 1.115l-.422.468c.365.045 1.455-.587 1.409-.28.135-.407.131-1.209-.117-1.522l-.058-.06.466.297.539.332.54.33c-.222-.089-.465-1.306-.605-1.494.464-.2 1.236 1.098.991 1.39l.003-.003.109-.185c.522-.858.508-.55.85-1.477l.073-.202c.303-.008.37 1.259.206 1.453.729.11 1.053-.16 1.31-.385-1.201-.165-1.125-2.544-1.607-3.375l3.356 2.775c-.145-.185-.69-1.244-.723-1.384.53.992 3.135.275 4.31-.353l-.189.06c-.373-.263.585-.94 1.148-.737-.148-.18-.227-.081-.416-.022.251-.498.619-.288.992-.038l.187.126c.372.245.732.42.967-.145-.728.38-1.028.02-1.136-.4.758.141 2.055-.794 2.203.523.306-.4.726-.38.461-.977.604.058 1.202.094 1.8.123-.16-.078-.395-.393.017-.656-.786.518-2.044-.3-2.2.652-.301-.738-.13-1.255-.775-1.735 1.784-.23 3.147.623 4.529 1.074l1.233-1.123.198.314-.094-.953c.26.122.443.243.448.148.002-.089-.09-.183-.211-.28.169-.02.337 0 .444.058-.126-.467-.588-.877-1.046-1.23-.068.211-.137.426-.205.631-.452-.312-.83-.669-.554-1.11.079.035.174.07.274.101-.307-.246-.523-.463-.442-.642l1.255-.035c-.078.167-.163.483-.268.848.909.278 1.977.631 1.596 1.454l.633-.842c1.336.441 1.088.328 2.542.424-.06-.321-.481-.43-.36-.74 1.273.558 1.629-2.04 2.177-1.294.788-.106.61.595 1.158.628-.062-.084-.185-.25-.063-.321l.796.364c.117-.311-.672-.2-.192-.723 1.219-.004 1.962.038 2.667-.662 1.262-.438.036 1.434.993.825-.076-.558-.215-1.198.381-1.576.49.174.625.574 1.295.513l-.389-.725c.54-.221 1.024-.286.759-.848.58.11.848-.09 1.014-.316.987.007.144 1.784.095 2.166.518-.937 1.218-.877 1.228-1.981l-.79.135c1.028-1.62 1.91.347 1.811-1.555-.47.315-1.26.232-1.168-.325l.907.004c-.014-.238-.479.078-.261-.317.285.055.894.215 1.204.362h-.001l.163.198c.078-.052-.006-.123-.163-.198l-.032-.04 1.245-.504-.031.003c-.135 0-.21-.137-.094-.253l.046-.038 1.05-.06c-.356-.048-.204-.412.116-.73.98-.79 1.737 1.182 2.203-.003-.115.08-.184 0-.302.08l.268-.553c.422.692 1.02.47 1.632.182l.283-.134c.612-.289 1.214-.513 1.645.176.283-.964-.16-.392-1.347-.676l.419-.806c-.298.09-.458.331-.824.339.51-1.123 1.76-.757 2.45-.62.207-.403-.892-1.002.183-1.27 1.49-.438.369 1.252 1.266.988l.135-1.108c1.346.02 1.788-.966 2.574-1.56.228-.05.369-.025.464.032.7-.866 2.332-.35 2.863-1.007-.253-.066.098-.716.063-.957l1.493-.272c-.656.13-.9-.33-1.258-.7.403-.189.728-.056 1.018-.158-.25-.059-.506-.12-.428-.443l1.71-.054c-.029.122-.156.24-.267.336.319-.192 1.175-.339 1.403-.98-.144-.145-.398-.208-.543-.356-.079.722-.55.443-.949.234.916-.465.147-.248.371-.82.622-.365 1.238.062 1.308.533.586-.605.742-.842 1.717-.861l-.509-.51.76-.231-.98-.386c.968-1.209.874.872 2.025-.359l-.33-.523c.65-.142 1.4.615 1.404-.276.265-.007.279.17.256.362l-.016.115c-.043.286-.073.528.633.149.037-.407.365-.901.64-1.233.476-.014.2.624-.074.835l-.022.016.105-.057c1.594-.916-.044-2.318 1.608-2.77l.198-.046c-.299.744 1.124.68-.18 1.555.824-.122.714-1.58 1.735-1.462l-.862-.368c.222-.172.644-.112.823-.119l-.395-.467c1.398.337 1.186-1.433 2.453-.605-.951-.674.623-.363.687-.94-1.08-.167-1.847 1.322-2.51.542.129-.461.681-.237.804-.684-.29.016-.74-.002-.934-.117.673-1.153 1.9-.593 2.656-.802l-1.19.566c.665.772.573-.2 1.326.24.217-.827 1.087-.478 1.325-1.063-.11.087-.177.01-.288.1 1.171-.81.525-2.387.963-2.737.372-.426 1.529-.612 1.48-.035.533-.038-1.69.874-.267 1.46-.24-1.71 1.676-.539 2.475-2.435-.939.028-.146-.96-.941-.876.745-.403.905-.24 1.462-.12l-.082-.531c1.517.193.775.606 2.437.037-.666.047.11-.958-.43-.964.345-.308.786-.47 1.227-.45l-.09-.017c1.478-.846.728-1.311 2.25-1.855l.059.322c2.05-.655 3.723-2.643 5.541-3.719l-.379.596.053-.048c.29-.22 1.162-.503 1.44-1.064l.057-.146c-.119.063-.374.108-.443.215-.192-.26-.3-.784.03-1.17l.46.248-.091-.424c.573-.503.282.685.857.18-.263-.629.223-1.165.79-1.696l.288-.266c.577-.531 1.123-1.072.972-1.709 1.056.42-.983 1.069.047 1.386.075-.27.027-.483.346-.874l.27.572c.608-.722 1.019-1.311 1.397-1.843.007.06.041.122.16.196.197.027.391.013.59.04v.001l-.083-.04c-.341-.174-.035-.176.294-.166l.14.005c-.146.272.115.098.445.312-.06.2-.75.146-1.165.004.145.27.263.37-.296.5l.696.099-.262.172.875-.003c.383.512-1.194-.168-.903.374l.604.127c-.268.128-1.3-.021-.604.266-.4.097-.793-.471-1-.092.298.137.493.336.591.478-.251.06-.567-.151-.606-.261l-.003-.025-.02.034c-.196.491 1.824.742 1.2 1.086l-.087.042c-.395-.277-1.201-.086-1.09-.525-.403.137.788.597.085.682h.003l.798.016c-.001.07-.222.102-.35.126l-.053.01.598.105c-1.101.056.39.61-1.01.488l.018.002.112.012c.827.1-.124.178.119.346l.043.025c.803-.067.112-.647 1.11-.47.113.067.099.106.06.138l-.066.048c-.04.032-.056.07.053.134.161-.04.446-.088.651-.073.49.461-.71.417-1.012.57l.306-.32c-.999-.175-.204.13-1.004.074.495.295-.307.278-.01.497.003-.042.1-.024.102-.065-.108.396 1.486.844 1.481 1.009.097.183-.505.369-.903.174-.302.071.408-.472-.927-.51l.003.001.138.055c1.11.453-.625.336.031.94l.087.072c.573-.11.81.302 1.25.188-.171.214-.394.178-.836.197l.45.168c-1.106.094-.938-.12-1.591.237.396-.083.633.328.986.276.004.138-.163.235-.461.273l.07-.003c-.339.427.506.511-.103.84l-.272-.102c-.872.412-.534 1.232-1.003 1.749l-.169-.232-.004.024c-.046.099-.413.266-.21.475l.07.058c.034-.031.173-.069.142-.112.313.07.763.238.813.396l-.487-.043.357.133c-.034.198-.563-.134-.687-.032l-.024.044c1.346.41-.01.966 1.16 1.403-1.023-.06-.059-.438-.993-.464l.002.001.083.055c.088.054.18.106.237.181l.044.085-.583-.172c.202.723.658 1.078.411 1.633l.133.003c.188.255.057.344-.477.33.27.1.443-.02.671.112-1.597.049.966.96-.144.96l.001.001.297.064c.984.245 1.86.762 2.684.851l.246.013-.173.12c.802.115.115-.464.964-.379l-.733-.642c.295.077.754.091.841.187.04-.114.103-.206.499.035-.921-.796-.783-1.382-.549-1.946l.09-.21c.198-.456.378-.912.023-1.47.087-.06.357.04.536.109l-.004-.002-.083-.044c-.506-.281.435-.092.635-.147l.024-.01-1.041-.527c.353-.054.671.111.892.148.337-.52-.621-1.294.124-1.616-.365-.23-.894-.15-.99-.37 1.082.496.649-.45 1.417-.118l-.028-.01-.107-.044c-.91-.39-.126-.677-1.478-.922l-.198-.033c-.053-.25.753-.043.89.055-.009-.281.027-.499.6-.608-.361-.228.672-1.134-.544-1.635l.008.004.127.052c.57.23.352.043.617-.046l.065-.017.694.291-.004-.367c.083-.059.057-.085-.008-.098-.024-.067-.42-.072-.572-.262.004-.248.404-.178.805-.232l.1.058.103-.148c.003-.125-.808.273-1.099-.193.2.035 1.203.003.705-.21-.003.21-.502.08-.7-.039l.006-.29.898.283c.115-.812-.365-1.78-.13-2.625-.805-.154.084-.614-1.11-.78l.106.056c-.16.186-.92-.254-.75-.397.338.257 1.246-.076 1.332.394l.628-.22c1.314.162 1.125-.167.877-.545l-.074-.114c-.16-.25-.283-.501.027-.634a.975.975 0 0 1-.29-.007c.823-.325-.41-1.094-.006-1.22l-.613-.166c1.068-.353 1.185-.51.918-1.164-.106.01-.308.083-.424-.015.51-.151 1.031-.353.996-.822l-.213.044.262-.75c-1.041.209-.668-.119-.299-.532.369-.403.738-.91-.418-.56.659-.36.969-.971 1.327-1.364a.922.922 0 0 1-.285.088c1.262-.899-.207-.621-.016-.954.333-.373.709-.54 1.08-.678-.443.08-.115-.36.289-.869zM21.69 68.312c.448.052.857.187.858-.338-.488-.191-.976-.385-.78.33-.027.01-.052.007-.079.008zm1.058 1.247l-.297-.493-.098.659.395-.166zm3.046-.665c-.005-.192-.466-.015-.899.05.117.037.212.092.214.2zm1.103-2.73c1.165.183-.61-1.044-.3-.426.09-.223.11.58.3.426zm4.776 3.884l-.14-.787c-.087.228-.08.371-.269.537l.409.25zm2.072-1.953c.298.044.487-.122.372-.328l-.794-.067c-.084.23.213.27.422.395zm.036 2.104c.992-.1-.123-.35-.235-.558-.682.287.121.353.235.558zm1.426-5.638c-.261.075-.545.24-.891.505.2.445.49-.095.89-.505zm1.092-.213c-.439-.31-.798-.088-1.093.213.331-.101.623-.082.916-.045.06-.059.12-.1.177-.168zm8.583 2.024l-.454-1.25.26 1.286.194-.036zm9.066-6.117l-.02-.573c-.107-.567-.384.28-.686.86a.875.875 0 0 1 .706-.287zm1.784 6.522c.015-.9-.22-.641-.85-.801.288.195-.582.454-.289.693.314-.27.413-.168.497-.02l.064.113c.09.15.216.264.578.015zm7.61-2.858l-1.308-1.752.16 1.641c.283-.247.5-.407 1.149.111zm12.292-6.5c-.172.324-.365.512-.59.383.178-.244.382-.353.59-.382zm16.302-5.402c.018.396-.549.224-.8.203.243-.345.266-.734.8-.203zm11.923-4.245c-.339-.747-.262-.07-.631.235l-.02.016.146-.054c.119-.036.242-.068.352-.114zm25.27-44.635l.019-.123c-.18.258-.512-.231-.769-.348l.097.74.034-.21c.21-.328.527.738.638-.182zm2.228 1.264c.1-.49.137-.847.18-1.347l-.012.126-.016.08a3.179 3.179 0 0 1-.24.684l-.046.071-.026-.075c-.166.27-.033.521.02.668.004-.182-.073-.282.003-.449.088-.057.11.165.137.242zM132.75.627c-.097-.289-.202-.61-.328-.677.08.231-.098.492-.022.866.14-.307.248-.35.35-.189zm-.218 2.958l-.31-.271c.022.222-.014.578.16.464l-.007.288.157-.48zm.668-.25c.114-.6-.075-.835-.137-1.39.175.063.273.077.352 0l-.372-.303.009-.033a1.33 1.33 0 0 1-.191.253.4.4 0 0 1 .199.146c-.266.316.211.76-.159.625.137.24.07.665.3.702zm.652-1.476a1.39 1.39 0 0 0-.168-.607c-.116.399-.181.604-.27.693l.079.063-.027-.076zm.538 3.344c.052-.934-.372-1.222-.27-1.857-.121.269-.076.712-.328.451-.16-.462.194-.836.26-1.115-.19-.3-.191-.506-.197-.728-.16.94-.278 2.617-.092 2.999.187-.548.405-.077.42.433.061-.133-.019-.365-.015-.51zm.278-1.726c.107.09.193.155.205-.293l-.048-.083c-.119-.2-.223-.313-.188.333-.008.006-.014 0-.023-.001zm9.717 4.868c.072-.864-.012-.677-.174-1.004.065.267-.196.278-.132.588.24-.394.04.732.306.416zm2.316-.479l-.206-2.073-.098 1.612c.098-.148.172-.233.304.461zm4.219-3.307l-.205.605-.23.326c-.014-.014-.026-.028-.041-.04.128-.396.26-.786.497-1.048l-.021.157zm-.382 7.2l-.925.247a.207.207 0 0 1-.1-.103c.12-.166.243-.33.368-.488l.511.074c-.077.114-.368.115-.451.186.19-.015.383-.03.597.085zm2.66-9.65l-.766-.292.496.68c-.06-.205.159-.326.27-.387zm-.066 26.07l-.882-.187-.189.893-.368-.096c.155.058.11.112.066.145l-.018.013.302.02-.061.285.882.188.268-1.26z" fill="#F2A3B1" fill-rule="evenodd"/></svg>